<?xml version="1.0" standalone="no"?>
<svg xmlns="http://www.w3.org/2000/svg" viewBox="0 0 47.416 54.752" width="47.416" height="54.752"><polygon fill="none" stroke="#72edca" stroke-width="3" points="45.916,14.438 45.916,40.314 23.708,53.252 1.5,40.314 1.5,14.438 23.708,1.5"></polygon><path fill="#0019ff" fill-rule="nonzero" d="M2.81 16.70L0.10 16.70Q0 16.70 0 16.58L0 16.58L0.05 0.10Q0.05 0 0.14 0L0.14 0L3.07 0Q3.17 0 3.24 0.10L3.24 0.10L5.42 3.26L7.61 0.10Q7.68 0 7.78 0L7.78 0L10.73 0Q10.82 0 10.82 0.10L10.82 0.10L10.87 16.58Q10.87 16.70 10.78 16.70L10.78 16.70L8.06 16.70Q7.97 16.70 7.97 16.58L7.97 16.58L7.94 4.34L5.42 7.99L2.93 4.34L2.90 16.58Q2.90 16.70 2.81 16.70L2.81 16.70ZM15.70 16.70L13.01 16.70Q12.89 16.70 12.89 16.58L12.89 16.58L12.94 0.10Q12.94 0 13.03 0L13.03 0L17.64 0Q19.85 0 21.13 1.34Q22.42 2.69 22.42 4.99L22.42 4.99Q22.42 6.70 21.74 7.94Q21.07 9.19 19.99 9.86Q18.91 10.54 17.64 10.54L17.64 10.54L15.82 10.54L15.82 16.58Q15.82 16.70 15.70 16.70L15.70 16.70ZM15.82 2.88L15.82 7.63L17.64 7.63Q18.41 7.63 18.97 6.90Q19.54 6.17 19.54 4.99L19.54 4.99Q19.54 4.06 19.03 3.46Q18.53 2.86 17.64 2.86L17.64 2.86L15.82 2.88Z" transform="translate(12.5, 19.024)"></path></svg>